<?xml version="1.0" encoding="UTF-8"?>
<!DOCTYPE svg PUBLIC "-//W3C//DTD SVG 1.1//EN" "http://www.w3.org/Graphics/SVG/1.1/DTD/svg11.dtd">
<!-- Creator: CorelDRAW -->
<svg xmlns="http://www.w3.org/2000/svg" xml:space="preserve" width="512px" height="512px" version="1.1" style="shape-rendering:geometricPrecision; text-rendering:geometricPrecision; image-rendering:optimizeQuality; fill-rule:evenodd; clip-rule:evenodd"
viewBox="0 0 512 512"
 xmlns:xlink="http://www.w3.org/1999/xlink">
 <defs>
  <style type="text/css">
   <![CDATA[
    .fil0 {fill:#5EAC24}
    .fil2 {fill:#89CA80}
    .fil1 {fill:#A9D28B}
   ]]>
  </style>
 </defs>
 <g id="Layer_x0020_1">
  <metadata id="CorelCorpID_0Corel-Layer"/>
  <g id="_341021136">
   <path class="fil0" d="M256 512c-69,0 -133,-27 -181,-75 -48,-48 -75,-112 -75,-181 0,-69 27,-133 75,-181 48,-48 112,-75 181,-75 69,0 133,27 181,75 48,48 75,112 75,181 0,69 -27,133 -75,181 -48,48 -112,75 -181,75z"/>
   <path class="fil1" d="M256 466c-116,0 -210,-94 -210,-210 0,-116 94,-210 210,-210 116,0 210,94 210,210 0,116 -94,210 -210,210z"/>
   <path class="fil0" d="M214 362c-2,0 -4,-1 -5,-2l-81 -80c-6,-6 -8,-14 -6,-23 3,-10 12,-19 23,-21 8,-2 16,0 22,6l47 47 131 -132c11,-11 27,-7 37,2 9,10 13,25 2,36l-165 165c-1,1 -3,2 -5,2z"/>
   <path class="fil2" d="M256 46c-116,0 -210,94 -210,210 0,56 22,106 57,144 -24,-34 -38,-76 -38,-121 0,-116 94,-210 210,-210 60,0 114,25 153,66 -39,-54 -101,-89 -172,-89z"/>
  </g>
 </g>
</svg>
