<?xml version="1.0" encoding="UTF-8" standalone="no"?> <svg id="line" xmlns="http://www.w3.org/2000/svg" viewBox="0 0 64 64"><path d="M59.8142,25.26806a.96564.96564,0,0,0-.77974-.396h-.92023c0-3.46876,0-15.15168-.00006-15.15157A3.98371,3.98371,0,0,0,51.59062,6.707l-.749.638-1.29891-1.2989a.96464.96464,0,0,0-1.16631-.15274L43.4698,8.73509a.97181.97181,0,0,0-.19894,1.518l5.32336,5.32336a.96512.96512,0,0,0,1.518-.19894L52.954,10.47089a.96464.96464,0,0,0-.15274-1.16631l-.58934-.58935.63083-.53731a2.03932,2.03932,0,0,1,3.34053,1.54246V24.87206H4.96737a.97241.97241,0,0,0-.91976,1.25871l8.40556,26.40466a.96659.96659,0,0,0,.92022.67226h2.57353v4.0637a.96548.96548,0,1,0,1.931,0v-4.0637H46.12394v4.0637a.96549.96549,0,1,0,1.931,0v-4.0637h2.574a.96616.96616,0,0,0,.92023-.67226l8.40555-26.40466A.96745.96745,0,0,0,59.8142,25.26806ZM49.07131,13.323l-3.547-3.547,3.17742-1.84046,2.21005,2.21005Zm.8514,37.95369H14.07912L9.49,36.86141H54.51158Zm5.20355-16.34628H8.87521L6.28784,26.803H57.71352Z"/><path d="M39.13644,14.5346a1.58843,1.58843,0,0,0,1.52648-1.09183L41.52,10.50389l-2.88508.84291A1.63618,1.63618,0,0,0,39.13644,14.5346Z"/><path d="M42.33461,17.88833A1.584,1.584,0,0,0,43.862,16.79556l.858-2.93793-2.88508.84285A1.63589,1.63589,0,0,0,42.33461,17.88833Z"/><path d="M45.5554,21.22038a1.587,1.587,0,0,0,1.52648-1.09277l.85989-2.93888-2.88791.84292A1.63683,1.63683,0,0,0,45.5554,21.22038Z"/><path d="M37.31013,19.63639a1.58589,1.58589,0,0,0,1.52743-1.09277l.858-2.93794-2.886.84291A1.63616,1.63616,0,0,0,37.31013,19.63639Z"/><path d="M40.51018,22.99012a1.58644,1.58644,0,0,0,1.52648-1.09277l.85706-2.93888-2.88414.84292A1.63658,1.63658,0,0,0,40.51018,22.99012Z"/></svg>