<?xml version="1.0" encoding="UTF-8" standalone="no"?><!DOCTYPE svg PUBLIC "-//W3C//DTD SVG 1.1//EN" "http://www.w3.org/Graphics/SVG/1.1/DTD/svg11.dtd"><svg width="100%" height="100%" viewBox="0 0 24 24" version="1.1" xmlns="http://www.w3.org/2000/svg" xmlns:xlink="http://www.w3.org/1999/xlink" xml:space="preserve" xmlns:serif="http://www.serif.com/" style="fill-rule:evenodd;clip-rule:evenodd;stroke-linejoin:round;stroke-miterlimit:2;"><g id="Icon"><circle cx="12" cy="15" r="4.25"/><path d="M22.53,12.97c0,-0 -0.604,-0.604 -1.514,-1.515c-4.98,-4.979 -13.052,-4.979 -18.032,-0c-0.91,0.911 -1.514,1.515 -1.514,1.515c-0.293,0.292 -0.293,0.768 -0,1.06c0.292,0.293 0.768,0.293 1.06,0c0,0 0.604,-0.604 1.515,-1.514c4.393,-4.394 11.517,-4.394 15.91,-0c0.911,0.91 1.515,1.514 1.515,1.514c0.292,0.293 0.768,0.293 1.06,0c0.293,-0.292 0.293,-0.768 0,-1.06Z"/><path d="M18.85,6.867l-1.5,2.598c-0.206,0.358 -0.083,0.817 0.275,1.024c0.358,0.207 0.818,0.084 1.025,-0.274l1.5,-2.598c0.206,-0.359 0.083,-0.818 -0.275,-1.025c-0.358,-0.207 -0.818,-0.084 -1.025,0.275Z"/><path d="M11.25,5.5l-0,3c0,0.414 0.336,0.75 0.75,0.75c0.414,-0 0.75,-0.336 0.75,-0.75l-0,-3c0,-0.414 -0.336,-0.75 -0.75,-0.75c-0.414,-0 -0.75,0.336 -0.75,0.75Z"/><path d="M3.85,7.617l1.5,2.598c0.207,0.358 0.667,0.481 1.025,0.274c0.358,-0.207 0.481,-0.666 0.275,-1.024l-1.5,-2.598c-0.207,-0.359 -0.667,-0.482 -1.025,-0.275c-0.358,0.207 -0.481,0.666 -0.275,1.025Z"/></g></svg>