<?xml version="1.0" encoding="UTF-8"?>
<!DOCTYPE svg PUBLIC "-//W3C//DTD SVG 1.1//EN" "http://www.w3.org/Graphics/SVG/1.1/DTD/svg11.dtd">
<!-- Creator: CorelDRAW -->
<svg xmlns="http://www.w3.org/2000/svg" xml:space="preserve" width="1.70666in" height="1.70666in" version="1.1" style="shape-rendering:geometricPrecision; text-rendering:geometricPrecision; image-rendering:optimizeQuality; fill-rule:evenodd; clip-rule:evenodd"
viewBox="0 0 1707 1707"
 xmlns:xlink="http://www.w3.org/1999/xlink">
 <defs>
  <style type="text/css">
   <![CDATA[
    .fil0 {fill:black}
   ]]>
  </style>
 </defs>
 <g id="Layer_x0020_1">
  <metadata id="CorelCorpID_0Corel-Layer"/>
  <g id="_561678632">
   <g>
    <path class="fil0" d="M1535 1706l-1363 0c-56,0 -101,-45 -101,-101l0 -1503c0,-56 45,-101 101,-101l1363 0c55,0 100,45 100,101l0 1503c0,56 -45,101 -100,101zm-1363 -1659c-30,0 -54,25 -54,55l0 1503c0,30 24,54 54,54l1363 0c30,0 54,-24 54,-54l0 -1503c0,-30 -24,-55 -54,-55l-1363 0z"/>
   </g>
   <g>
    <path class="fil0" d="M924 440l-830 0c-12,0 -23,-10 -23,-23 0,-13 11,-23 23,-23l830 0c13,0 23,10 23,23 0,13 -10,23 -23,23z"/>
   </g>
   <g>
    <path class="fil0" d="M618 440c-13,0 -23,-10 -23,-23l0 -393c0,-13 10,-23 23,-23 13,0 23,10 23,23l0 393c0,13 -10,23 -23,23z"/>
   </g>
   <g>
    <path class="fil0" d="M1292 877l-1198 0c-12,0 -23,-11 -23,-24 0,-13 11,-23 23,-23l1198 0c13,0 24,10 24,23 0,13 -11,24 -24,24z"/>
   </g>
   <g>
    <path class="fil0" d="M638 1706c-13,0 -24,-11 -24,-23l0 -830c0,-13 11,-23 24,-23 12,0 23,10 23,23l0 830c0,12 -11,23 -23,23z"/>
   </g>
   <g>
    <path class="fil0" d="M1612 1274l-974 0c-13,0 -24,-10 -24,-23 0,-13 11,-23 24,-23l974 0c13,0 23,10 23,23 0,13 -10,23 -23,23z"/>
   </g>
   <g>
    <path class="fil0" d="M1612 639l-383 0c-13,0 -23,-10 -23,-23 0,-13 10,-24 23,-24l383 0c13,0 23,11 23,24 0,13 -10,23 -23,23z"/>
   </g>
   <g>
    <path class="fil0" d="M1229 704c-13,0 -23,-10 -23,-23l0 -131c0,-13 10,-23 23,-23 13,0 23,10 23,23l0 131c0,13 -10,23 -23,23z"/>
   </g>
   <g>
    <path class="fil0" d="M924 506c-13,0 -24,-11 -24,-24l0 -131c0,-13 11,-23 24,-23 13,0 23,10 23,23l0 131c0,13 -10,24 -23,24z"/>
   </g>
   <g>
    <path class="fil0" d="M1292 942c-13,0 -23,-10 -23,-23l0 -131c0,-13 10,-23 23,-23 13,0 24,10 24,23l0 131c0,13 -11,23 -24,23z"/>
   </g>
   <g>
    <path class="fil0" d="M373 877c-13,0 -23,-11 -23,-24l0 -436c0,-13 10,-23 23,-23 13,0 24,10 24,23l0 436c0,13 -11,24 -24,24z"/>
   </g>
   <g>
    <path class="fil0" d="M1110 1706c-13,0 -23,-11 -23,-23l0 -432c0,-13 10,-23 23,-23 13,0 24,10 24,23l0 432c0,12 -11,23 -24,23z"/>
   </g>
  </g>
 </g>
</svg>
